<?xml version="1.0" encoding="UTF-8"?>
<svg xmlns="http://www.w3.org/2000/svg" xmlns:xlink="http://www.w3.org/1999/xlink" width="128pt" height="128pt" viewBox="0 0 128 128" version="1.1">
<defs>
<linearGradient id="linear0" gradientUnits="userSpaceOnUse" x1="86" y1="67.75994" x2="86" y2="98.69038" gradientTransform="matrix(2,0,0,2,0,0)">
<stop offset="0" style="stop-color:rgb(48.235294%,87.058824%,98.039216%);stop-opacity:1;"/>
<stop offset="1" style="stop-color:rgb(43.137255%,67.843137%,93.333333%);stop-opacity:1;"/>
</linearGradient>
<linearGradient id="linear1" gradientUnits="userSpaceOnUse" x1="86" y1="19.95738" x2="86" y2="143.62" gradientTransform="matrix(0.744186,0,0,0.744186,0,0)">
<stop offset="0" style="stop-color:rgb(5.882353%,76.862745%,96.470588%);stop-opacity:1;"/>
<stop offset="1" style="stop-color:rgb(9.803922%,46.27451%,82.352941%);stop-opacity:1;"/>
</linearGradient>
</defs>
<g id="surface17383045">
<path style=" stroke:none;fill-rule:nonzero;fill:url(#linear0);" d="M 76 64 C 76 70.628906 70.628906 76 64 76 C 57.371094 76 52 70.628906 52 64 C 52 57.371094 57.371094 52 64 52 C 70.628906 52 76 57.371094 76 64 Z M 76 64 "/>
<path style=" stroke:none;fill-rule:nonzero;fill:url(#linear1);" d="M 116 64 C 116 56.484375 107.515625 49.964844 94.292969 46.015625 C 94.734375 43.953125 95.109375 41.925781 95.34375 39.984375 C 96.65625 29.019531 94.375 21.339844 88.921875 18.359375 C 83.460938 15.382812 75.773438 17.617188 67.257812 24.652344 C 66.171875 25.550781 65.085938 26.527344 64 27.550781 C 62.914062 26.527344 61.828125 25.550781 60.742188 24.652344 C 52.226562 17.617188 44.535156 15.382812 39.078125 18.359375 C 33.625 21.339844 31.34375 29.019531 32.65625 39.984375 C 32.890625 41.929688 33.265625 43.953125 33.707031 46.015625 C 20.484375 49.964844 12 56.484375 12 64 C 12 71.515625 20.484375 78.035156 33.707031 81.984375 C 33.265625 84.046875 32.890625 86.074219 32.65625 88.015625 C 31.34375 98.980469 33.625 106.660156 39.078125 109.640625 C 40.65625 110.503906 42.421875 110.925781 44.335938 110.925781 C 49.050781 110.925781 54.691406 108.351562 60.742188 103.351562 C 61.828125 102.453125 62.914062 101.472656 64 100.449219 C 65.085938 101.476562 66.171875 102.453125 67.257812 103.351562 C 73.308594 108.351562 78.949219 110.925781 83.664062 110.925781 C 85.578125 110.925781 87.34375 110.5 88.921875 109.640625 C 94.375 106.660156 96.65625 98.980469 95.34375 88.015625 C 95.109375 86.070312 94.734375 84.046875 94.292969 81.984375 C 107.515625 78.035156 116 71.515625 116 64 Z M 69.804688 27.730469 C 76.863281 21.898438 83.132812 19.757812 87.003906 21.871094 C 90.871094 23.980469 92.460938 30.410156 91.371094 39.507812 C 91.160156 41.265625 90.824219 43.097656 90.433594 44.964844 C 86.199219 43.925781 81.570312 43.132812 76.648438 42.632812 C 73.519531 38.082031 70.21875 33.929688 66.832031 30.367188 C 67.820312 29.4375 68.8125 28.550781 69.804688 27.730469 Z M 79.796875 72.625 C 78.09375 75.75 76.277344 78.734375 74.394531 81.574219 C 71.09375 81.851562 67.621094 82 64 82 C 60.378906 82 56.90625 81.851562 53.605469 81.574219 C 51.722656 78.734375 49.90625 75.75 48.199219 72.625 C 46.632812 69.757812 45.203125 66.871094 43.914062 64 C 45.203125 61.132812 46.632812 58.246094 48.199219 55.375 C 49.90625 52.25 51.71875 49.265625 53.605469 46.425781 C 56.90625 46.148438 60.378906 46 64 46 C 67.621094 46 71.09375 46.148438 74.394531 46.425781 C 76.277344 49.265625 78.09375 52.25 79.800781 55.375 C 81.367188 58.242188 82.796875 61.128906 84.085938 64 C 82.796875 66.867188 81.367188 69.753906 79.796875 72.625 Z M 86.15625 68.972656 C 87.515625 72.453125 88.632812 75.863281 89.507812 79.164062 C 86.421875 79.917969 83.089844 80.554688 79.488281 81.023438 C 80.804688 78.925781 82.089844 76.777344 83.308594 74.542969 C 84.320312 72.691406 85.257812 70.832031 86.15625 68.972656 Z M 64 94.804688 C 61.457031 92.125 58.957031 89.078125 56.542969 85.78125 C 58.972656 85.921875 61.460938 86 64 86 C 66.539062 86 69.027344 85.921875 71.457031 85.78125 C 69.042969 89.078125 66.542969 92.125 64 94.804688 Z M 48.507812 81.023438 C 44.910156 80.554688 41.578125 79.917969 38.488281 79.164062 C 39.367188 75.863281 40.480469 72.449219 41.84375 68.972656 C 42.742188 70.835938 43.679688 72.691406 44.6875 74.542969 C 45.90625 76.777344 47.195312 78.925781 48.507812 81.023438 Z M 41.84375 59.027344 C 40.484375 55.546875 39.367188 52.136719 38.492188 48.835938 C 41.578125 48.082031 44.910156 47.445312 48.511719 46.976562 C 47.195312 49.074219 45.910156 51.222656 44.691406 53.457031 C 43.679688 55.308594 42.742188 57.167969 41.84375 59.027344 Z M 64 33.195312 C 66.542969 35.875 69.042969 38.921875 71.457031 42.21875 C 69.027344 42.078125 66.539062 42 64 42 C 61.460938 42 58.972656 42.078125 56.542969 42.21875 C 58.957031 38.921875 61.457031 35.875 64 33.195312 Z M 83.308594 53.457031 C 82.09375 51.226562 80.804688 49.078125 79.492188 46.976562 C 83.089844 47.445312 86.421875 48.082031 89.511719 48.835938 C 88.632812 52.136719 87.519531 55.550781 86.15625 59.027344 C 85.257812 57.167969 84.320312 55.308594 83.308594 53.457031 Z M 36.628906 39.507812 C 35.539062 30.410156 37.128906 23.980469 40.996094 21.871094 C 41.972656 21.339844 43.105469 21.078125 44.359375 21.078125 C 48.078125 21.078125 52.914062 23.371094 58.195312 27.734375 C 59.1875 28.554688 60.183594 29.4375 61.171875 30.371094 C 57.785156 33.933594 54.480469 38.085938 51.355469 42.636719 C 46.429688 43.136719 41.804688 43.933594 37.570312 44.96875 C 37.175781 43.101562 36.84375 41.265625 36.628906 39.507812 Z M 16 64 C 16 58.800781 22.941406 53.394531 34.632812 49.878906 C 35.847656 54.4375 37.507812 59.1875 39.574219 64 C 37.507812 68.8125 35.847656 73.5625 34.632812 78.121094 C 22.941406 74.605469 16 69.199219 16 64 Z M 58.195312 100.269531 C 51.136719 106.101562 44.871094 108.246094 40.996094 106.128906 C 37.128906 104.019531 35.539062 97.589844 36.628906 88.492188 C 36.839844 86.734375 37.175781 84.902344 37.566406 83.035156 C 41.800781 84.074219 46.429688 84.867188 51.351562 85.367188 C 54.480469 89.917969 57.78125 94.070312 61.167969 97.632812 C 60.179688 98.5625 59.1875 99.449219 58.195312 100.269531 Z M 91.371094 88.492188 C 92.460938 97.589844 90.871094 104.019531 87.003906 106.128906 C 83.132812 108.246094 76.867188 106.101562 69.804688 100.265625 C 68.8125 99.445312 67.816406 98.5625 66.828125 97.628906 C 70.214844 94.066406 73.519531 89.914062 76.644531 85.363281 C 81.570312 84.863281 86.195312 84.066406 90.429688 83.03125 C 90.824219 84.898438 91.15625 86.734375 91.371094 88.492188 Z M 93.367188 78.121094 C 92.152344 73.5625 90.492188 68.8125 88.425781 64 C 90.492188 59.1875 92.152344 54.4375 93.367188 49.878906 C 105.058594 53.394531 112 58.800781 112 64 C 112 69.199219 105.058594 74.605469 93.367188 78.121094 Z M 93.367188 78.121094 "/>
</g>
</svg>
